# Blender v2.77 (sub 0) OBJ File: 'hall.blend'
# www.blender.org
mtllib hall_low_floor.mtl
o hall_low_floor_Cube.005
v 1.970284 0.000000 -1.999999
v -1.991779 0.000000 -2.000000
v 1.970285 0.000000 1.999999
v -1.991779 0.000000 1.999999
v 1.970285 0.000001 -14.000000
v -1.991779 0.000001 -14.000000
v 1.970285 -0.000000 13.999999
v -1.991780 -0.000000 13.999998
vt 0.3567 0.0000
vt 0.4756 0.3617
vt 0.3567 0.3617
vt 0.2378 0.3617
vt 0.3567 0.0000
vt 0.3567 0.3617
vt 0.4756 0.0000
vt 0.2378 0.0000
vn 0.0000 1.0000 0.0000
usemtl hall
s off
f 2/1/1 5/2/1 6/3/1
f 4/4/1 7/5/1 3/6/1
f 2/1/1 1/7/1 5/2/1
f 4/4/1 8/8/1 7/5/1
