# Blender v2.77 (sub 0) OBJ File: 'hall.blend'
# www.blender.org
mtllib paintings.mtl
o acropolis
v 6.710326 2.966420 1.957158
v 6.710328 0.974421 1.957158
v 3.710326 2.966418 1.957160
v 3.710328 0.974418 1.957160
vt 0.0000 1.0000
vt 1.0000 0.0000
vt 1.0000 1.0000
vt 0.0000 0.0000
vn -0.0000 -0.0000 -1.0000
usemtl acropolis
s off
f 1/1/1 4/2/1 3/3/1
f 1/1/1 2/4/1 4/2/1
o castle_lake
v 1.300462 2.873300 7.957158
v 1.300464 1.067540 7.957158
v -1.233938 2.873298 7.957160
v -1.233936 1.067538 7.957160
vt 0.0000 0.0000
vt 1.0000 1.0000
vt 0.0000 1.0000
vt 1.0000 0.0000
vn -0.0000 -0.0000 -1.0000
usemtl castle_lake
s off
f 6/5/2 7/6/2 5/7/2
f 6/5/2 8/8/2 7/6/2
o good_samaritan
v -2.190093 2.930420 1.957159
v -2.190091 1.010420 1.957159
v -3.686093 2.930418 1.957160
v -3.686091 1.010419 1.957160
vt 0.0000 0.0000
vt 1.0000 1.0000
vt 0.0000 1.0000
vt 1.0000 0.0000
vn -0.0000 -0.0000 -1.0000
usemtl good_samaritan
s off
f 10/9/3 11/10/3 9/11/3
f 10/9/3 12/12/3 11/10/3
o moonlight
v -4.545464 2.822420 1.957159
v -4.545462 1.118420 1.957159
v -6.849464 2.822418 1.957160
v -6.849462 1.118418 1.957160
vt 0.0000 0.0000
vt 1.0000 1.0000
vt 0.0000 1.0000
vt 1.0000 0.0000
vn -0.0000 -0.0000 -1.0000
usemtl moonlight
s off
f 14/13/4 15/14/4 13/15/4
f 14/13/4 16/16/4 15/14/4
