# Blender v2.78 (sub 0) OBJ File: 'hall.blend'
# www.blender.org
mtllib podiums.mtl
o podiums
v -5.750000 0.000000 -1.922739
v -5.750000 0.000000 -1.422740
v -6.250000 0.000000 -1.422740
v -6.250000 0.000000 -1.922740
v -5.750000 1.200000 -1.922739
v -5.750000 1.200000 -1.422740
v -6.250000 1.200000 -1.422740
v -6.250000 1.200000 -1.922739
v -5.800000 1.210668 -1.872740
v -5.800000 1.210668 -1.472740
v -6.200000 1.210668 -1.472740
v -6.200000 1.210668 -1.872740
v -5.800000 1.410668 -1.872740
v -5.800000 1.410668 -1.472740
v -6.200000 1.410668 -1.472740
v -6.200000 1.410668 -1.872740
v -2.800000 1.210668 -1.872739
v -2.800000 1.210668 -1.472740
v -3.200000 1.210668 -1.472740
v -3.200000 1.210668 -1.872740
v -2.800000 1.410668 -1.872739
v -2.800000 1.410668 -1.472739
v -3.200000 1.410668 -1.472740
v -3.200000 1.410668 -1.872739
v -2.750000 0.000000 -1.922739
v -2.750000 0.000000 -1.422740
v -3.250000 0.000000 -1.422740
v -3.250000 0.000000 -1.922740
v -2.750000 1.200000 -1.922739
v -2.750001 1.200000 -1.422740
v -3.250000 1.200000 -1.422740
v -3.250000 1.200000 -1.922739
v 6.249999 0.000000 -1.922739
v 6.249999 0.000000 -1.422739
v 5.749999 0.000000 -1.422740
v 5.749999 0.000000 -1.922739
v 6.249999 1.200000 -1.922739
v 6.249999 1.200000 -1.422739
v 5.749999 1.200000 -1.422740
v 5.749999 1.200000 -1.922739
v 6.199999 1.210668 -1.872739
v 6.199999 1.210668 -1.472739
v 5.799999 1.210668 -1.472739
v 5.799999 1.210668 -1.872739
v 6.199999 1.410668 -1.872739
v 6.199999 1.410668 -1.472739
v 5.799999 1.410668 -1.472739
v 5.799999 1.410668 -1.872739
v 3.199999 1.210668 -1.872739
v 3.199999 1.210668 -1.472740
v 2.799999 1.210668 -1.472740
v 2.799999 1.210668 -1.872740
v 3.199999 1.410668 -1.872739
v 3.199999 1.410668 -1.472739
v 2.799999 1.410668 -1.472740
v 2.799999 1.410668 -1.872739
v 3.249999 0.000000 -1.922739
v 3.249999 0.000000 -1.422740
v 2.749999 0.000000 -1.422740
v 2.749999 0.000000 -1.922740
v 3.249999 1.200000 -1.922739
v 3.249999 1.200000 -1.422740
v 2.749999 1.200000 -1.422740
v 2.749999 1.200000 -1.922739
v 0.250000 0.000000 -13.922741
v 0.250000 0.000000 -13.422741
v -0.250000 0.000000 -13.422741
v -0.250000 0.000000 -13.922741
v 0.250000 1.200000 -13.922741
v 0.250000 1.200000 -13.422741
v -0.250000 1.200000 -13.422741
v -0.250000 1.200000 -13.922741
v 0.200000 1.210668 -13.872740
v 0.200000 1.210668 -13.472740
v -0.200000 1.210668 -13.472740
v -0.200000 1.210668 -13.872740
v 0.200000 1.410668 -13.872740
v 0.200000 1.410668 -13.472740
v -0.200000 1.410668 -13.472740
v -0.200000 1.410668 -13.872740
vt 0.1852 0.8571
vt 0.1852 0.9464
vt 0.0926 0.9464
vt 0.0926 0.8571
vt 0.3704 0.4286
vt 0.3704 0.8571
vt 0.2778 0.8571
vt 0.2778 0.4286
vt 0.3704 0.8571
vt 0.3704 0.4286
vt 0.4630 0.4286
vt 0.4630 0.8571
vt 0.8333 0.0000
vt 0.8333 0.4286
vt 0.7407 0.4286
vt 0.7407 0.0000
vt 0.6481 0.0000
vt 0.6481 0.4286
vt 0.5556 0.4286
vt 0.5556 0.0000
vt 1.0000 0.7143
vt 1.0000 0.7857
vt 0.9259 0.7857
vt 0.9259 0.7143
vt 1.0000 0.0714
vt 0.9259 0.0714
vt 0.9259 0.0000
vt 1.0000 0.0000
vt 1.0000 0.3571
vt 0.9259 0.3571
vt 0.9259 0.2857
vt 1.0000 0.2857
vt 1.0000 0.1429
vt 0.9259 0.1429
vt 0.9259 0.0714
vt 1.0000 0.0714
vt 0.9259 0.1429
vt 1.0000 0.1429
vt 1.0000 0.2143
vt 0.9259 0.2143
vt 0.5370 0.9286
vt 0.5370 1.0000
vt 0.4630 1.0000
vt 0.4630 0.9286
vt 0.8333 0.9286
vt 0.8333 1.0000
vt 0.7593 1.0000
vt 0.7593 0.9286
vt 1.0000 0.5714
vt 0.9259 0.5714
vt 0.9259 0.5000
vt 1.0000 0.5000
vt 1.0000 0.4286
vt 0.9259 0.4286
vt 0.9259 0.3571
vt 1.0000 0.3571
vt 0.9074 0.8571
vt 0.9815 0.8571
vt 0.9815 0.9286
vt 0.9074 0.9286
vt 0.0926 0.8571
vt 0.0926 0.9464
vt 0.0000 0.9464
vt 0.0000 0.8571
vt 0.1852 0.4286
vt 0.1852 0.8571
vt 0.0926 0.8571
vt 0.0926 0.4286
vt 0.5556 0.0000
vt 0.5556 0.4286
vt 0.4630 0.4286
vt 0.4630 0.0000
vt 0.0926 0.4286
vt 0.0926 0.8571
vt 0.0000 0.8571
vt 0.0000 0.4286
vt 0.2778 0.0000
vt 0.2778 0.4286
vt 0.1852 0.4286
vt 0.1852 0.0000
vt 0.2778 0.8571
vt 0.2778 0.9464
vt 0.1852 0.9464
vt 0.1852 0.8571
vt 0.6481 0.4286
vt 0.6481 0.8571
vt 0.5556 0.8571
vt 0.5556 0.4286
vt 0.4630 0.8571
vt 0.4630 0.4286
vt 0.5556 0.4286
vt 0.5556 0.8571
vt 0.3704 0.4286
vt 0.3704 0.0000
vt 0.4630 0.0000
vt 0.4630 0.4286
vt 0.1852 0.0000
vt 0.1852 0.4286
vt 0.0926 0.4286
vt 0.0926 0.0000
vt 0.7593 0.9286
vt 0.7593 1.0000
vt 0.6852 1.0000
vt 0.6852 0.9286
vt 0.7593 0.9286
vt 0.6852 0.9286
vt 0.6852 0.8571
vt 0.7593 0.8571
vt 1.0000 0.6429
vt 1.0000 0.7143
vt 0.9259 0.7143
vt 0.9259 0.6429
vt 0.8333 0.9286
vt 0.7593 0.9286
vt 0.7593 0.8571
vt 0.8333 0.8571
vt 0.5370 0.8571
vt 0.6111 0.8571
vt 0.6111 0.9286
vt 0.5370 0.9286
vt 0.6852 0.9286
vt 0.6852 1.0000
vt 0.6111 1.0000
vt 0.6111 0.9286
vt 0.6852 0.9286
vt 0.6111 0.9286
vt 0.6111 0.8571
vt 0.6852 0.8571
vt 0.9259 0.2857
vt 0.9259 0.2143
vt 1.0000 0.2143
vt 1.0000 0.2857
vt 1.0000 0.5000
vt 0.9259 0.5000
vt 0.9259 0.4286
vt 1.0000 0.4286
vt 1.0000 0.5714
vt 1.0000 0.6429
vt 0.9259 0.6429
vt 0.9259 0.5714
vt 0.3704 0.8571
vt 0.3704 0.9464
vt 0.2778 0.9464
vt 0.2778 0.8571
vt 0.2778 0.4286
vt 0.2778 0.8571
vt 0.1852 0.8571
vt 0.1852 0.4286
vt 0.7407 0.4286
vt 0.7407 0.8571
vt 0.6481 0.8571
vt 0.6481 0.4286
vt 0.2778 0.4286
vt 0.2778 0.0000
vt 0.3704 0.0000
vt 0.3704 0.4286
vt 0.9259 0.0000
vt 0.9259 0.4286
vt 0.8333 0.4286
vt 0.8333 0.0000
vt 0.4630 0.9464
vt 0.3704 0.9464
vt 0.3704 0.8571
vt 0.4630 0.8571
vt 0.7407 0.8571
vt 0.7407 0.4286
vt 0.8333 0.4286
vt 0.8333 0.8571
vt 0.0000 0.4286
vt 0.0000 0.0000
vt 0.0926 0.0000
vt 0.0926 0.4286
vt 0.8333 0.8571
vt 0.8333 0.4286
vt 0.9259 0.4286
vt 0.9259 0.8571
vt 0.7407 0.0000
vt 0.7407 0.4286
vt 0.6481 0.4286
vt 0.6481 0.0000
vt 0.6111 0.9286
vt 0.6111 1.0000
vt 0.5370 1.0000
vt 0.5370 0.9286
vt 1.0000 0.8571
vt 0.9259 0.8571
vt 0.9259 0.7857
vt 1.0000 0.7857
vt 0.9815 1.0000
vt 0.9074 1.0000
vt 0.9074 0.9286
vt 0.9815 0.9286
vt 0.4630 0.9286
vt 0.4630 0.8571
vt 0.5370 0.8571
vt 0.5370 0.9286
vt 0.9074 1.0000
vt 0.8333 1.0000
vt 0.8333 0.9286
vt 0.9074 0.9286
vt 0.9074 0.8571
vt 0.9074 0.9286
vt 0.8333 0.9286
vt 0.8333 0.8571
vn 0.0000 1.0000 0.0000
vn 1.0000 0.0000 0.0000
vn -0.0000 0.0000 1.0000
vn -1.0000 -0.0000 0.0000
vn 0.0000 0.0000 -1.0000
vn 0.0000 -1.0000 0.0000
usemtl podiums
s off
f 5/1/1 8/2/1 7/3/1 6/4/1
f 1/5/2 5/6/2 6/7/2 2/8/2
f 2/9/3 6/10/3 7/11/3 3/12/3
f 3/13/4 7/14/4 8/15/4 4/16/4
f 5/17/5 1/18/5 4/19/5 8/20/5
f 13/21/1 16/22/1 15/23/1 14/24/1
f 9/25/2 13/26/2 14/27/2 10/28/2
f 10/29/3 14/30/3 15/31/3 11/32/3
f 11/33/4 15/34/4 16/35/4 12/36/4
f 13/37/5 9/38/5 12/39/5 16/40/5
f 21/41/1 24/42/1 23/43/1 22/44/1
f 17/45/2 21/46/2 22/47/2 18/48/2
f 18/49/3 22/50/3 23/51/3 19/52/3
f 19/53/4 23/54/4 24/55/4 20/56/4
f 21/57/5 17/58/5 20/59/5 24/60/5
f 29/61/1 32/62/1 31/63/1 30/64/1
f 25/65/2 29/66/2 30/67/2 26/68/2
f 26/69/3 30/70/3 31/71/3 27/72/3
f 27/73/4 31/74/4 32/75/4 28/76/4
f 29/77/5 25/78/5 28/79/5 32/80/5
f 37/81/1 40/82/1 39/83/1 38/84/1
f 33/85/2 37/86/2 38/87/2 34/88/2
f 34/89/3 38/90/3 39/91/3 35/92/3
f 35/93/4 39/94/4 40/95/4 36/96/4
f 37/97/5 33/98/5 36/99/5 40/100/5
f 45/101/1 48/102/1 47/103/1 46/104/1
f 41/105/2 45/106/2 46/107/2 42/108/2
f 42/109/3 46/110/3 47/111/3 43/112/3
f 43/113/4 47/114/4 48/115/4 44/116/4
f 45/117/5 41/118/5 44/119/5 48/120/5
f 53/121/1 56/122/1 55/123/1 54/124/1
f 49/125/2 53/126/2 54/127/2 50/128/2
f 50/129/3 54/130/3 55/131/3 51/132/3
f 51/133/4 55/134/4 56/135/4 52/136/4
f 53/137/5 49/138/5 52/139/5 56/140/5
f 61/141/1 64/142/1 63/143/1 62/144/1
f 57/145/2 61/146/2 62/147/2 58/148/2
f 58/149/3 62/150/3 63/151/3 59/152/3
f 59/153/4 63/154/4 64/155/4 60/156/4
f 61/157/5 57/158/5 60/159/5 64/160/5
f 69/161/1 72/162/1 71/163/1 70/164/1
f 65/165/2 69/166/2 70/167/2 66/168/2
f 66/169/3 70/170/3 71/171/3 67/172/3
f 67/173/4 71/174/4 72/175/4 68/176/4
f 69/177/5 65/178/5 68/179/5 72/180/5
f 73/181/6 74/182/6 75/183/6 76/184/6
f 77/185/1 80/186/1 79/187/1 78/188/1
f 73/189/2 77/190/2 78/191/2 74/192/2
f 74/193/3 78/194/3 79/195/3 75/196/3
f 75/197/4 79/198/4 80/199/4 76/200/4
f 77/201/5 73/202/5 76/203/5 80/204/5
